<?xml version="1.0" encoding="UTF-8"?>
<svg id="Layer_1" data-name="Layer 1" xmlns="http://www.w3.org/2000/svg" viewBox="0 0 600 600">
  <defs>
    <style>
      .cls-1 {
        fill: #5d677f;
      }

      .cls-2 {
        fill: #fff;
      }

      .cls-3 {
        fill: #67c4ac;
      }
    </style>
  </defs>
  <path class="cls-1" d="M148.73,549.4c-22.95,0-44.52-8.92-60.74-25.12l-.82-.83c-31.04-31.23-33.3-79.84-6.33-113.75-24.56-30.93-24.71-75.72-.05-106.86-12.04-15.08-18.6-33.69-18.62-53.35-.02-17.91,5.38-34.97,15.44-49.31-12.77-15.95-19.7-35.61-19.69-56.34,0-24.09,9.38-46.72,26.4-63.71.59-.6,1.43-1.43,2.45-2.37l.75-.75c17.01-17.02,39.66-26.4,63.75-26.4,20.67,0,40.33,6.92,56.27,19.65,14.31-10.01,31.3-15.4,49.12-15.4,21.23,0,41.32,7.65,57.08,21.64,12.89-7.51,27.52-11.51,42.6-11.51,22.3,0,43.26,8.67,59.01,24.4,6.19,6.19,11.33,13.15,15.31,20.67,17.56,2.98,34.08,11.38,46.74,24.05l.31.3c16.41,16.52,25.18,38.53,25.11,61.11,3.81,2.71,7.41,5.74,10.78,9.09l.31.3c23.65,23.53,31.13,58.32,20.83,88.79,5.99,11.84,8.48,25.35,6.82,38.75-6.67,53.63-31.35,104.42-69.51,143.04l-1.99,1.99c-38.89,38.42-89.75,63.17-143.35,69.83-2.6.34-5.45.52-8.3.52-10.93,0-21.58-2.68-31.09-7.65-9.62,3.77-19.88,5.71-30.45,5.71-18.92,0-36.91-6.23-51.6-17.71-15.67,13.72-35.54,21.21-56.55,21.21Z"/>
  <path class="cls-2" d="M500.85,296.69c14.4-22.17,11.52-51.83-7.58-70.82l-.4-.39c-6.28-6.24-13.78-10.77-21.95-13.5,5.86-19.38,1.23-41.44-13.92-56.68l-.41-.4c-10.56-10.57-25.19-16.63-40.14-16.63-2.21,0-4.38.14-6.54.38-2.08-10.6-7.34-20.44-15.36-28.46-10.2-10.19-23.77-15.79-38.21-15.79s-27.41,5.29-37.82,14.95l-7.14,6.66-.73.7c-.45.45-1.05,1.05-1.75,1.75-2.74-6.26-6.65-12.09-11.72-17.14l-.69-.69c-10.68-10.55-24.82-16.36-39.83-16.36s-29.25,5.86-39.92,16.52l-11.5,11.5c-2.81-5.18-6.4-9.97-10.7-14.23l-.57-.56c-11.46-11.27-26.62-17.48-42.7-17.48s-31.48,6.31-42.94,17.78c-.51.51-.9.9-1.21,1.21-.82.74-1.48,1.39-2.01,1.93-11.45,11.43-17.76,26.67-17.76,42.91-.01,16.3,6.35,31.62,17.92,43.14l.42.42c4.21,4.18,8.94,7.67,14.03,10.42l-11.55,11.55c-10.7,10.68-16.59,24.91-16.57,40.06.02,15.14,5.92,29.33,16.61,39.95l.48.47c4.49,4.46,9.63,8.03,15.17,10.72-16.31,16.31-16.37,16.38-16.67,16.68-21.01,22.07-20.54,57.5,1.02,78.94l.61.61c4.42,4.36,9.45,7.86,14.87,10.52-5.51,5.56-11,11.14-16.41,16.77-21.18,22.33-20.76,56.93.87,78.68l.65.66c10.66,10.65,24.85,16.51,39.94,16.51s29.28-5.87,39.95-16.53c6.2-6.2,12.42-12.41,18.62-18.61,2.75,5.78,6.48,11.16,11.23,15.88,10.28,10.16,23.9,15.75,38.35,15.75,11.95,0,23.45-3.93,32.93-11.15,7.12,8.14,17.56,13.08,28.6,13.08,1.59,0,3.2-.1,4.68-.29,47.2-5.86,91.95-27.62,126.16-61.42l1.88-1.88c33.62-34.03,55.37-78.77,61.24-125.98,1.5-12.14-2.96-23.99-11.51-32.14Z"/>
  <path class="cls-1" d="M148.58,175.65c-8.37,0-16.23-3.24-22.15-9.12l-.41-.41c-5.99-5.96-9.24-13.84-9.24-22.25,0-8.41,3.26-16.27,9.18-22.16.31-.32.74-.74,1.29-1.21.37-.36.97-.96,1.91-1.9,5.9-5.9,13.75-9.15,22.12-9.15s16.21,3.23,22.14,9.1l.44.42c5.95,5.88,9.22,13.71,9.24,22.09.02,8.11-2.99,15.73-8.49,21.58-.21.25-.44.49-.67.72-.84.84-1.5,1.5-2.13,2.05l-1.09,1.08c-5.9,5.9-13.76,9.15-22.13,9.15,0,0,0,0,0,0Z"/>
  <path class="cls-1" d="M278.71,157.59c8.14-10.71,7.18-26.05-2.35-35.45l-.55-.56c-5.13-5.07-11.93-7.86-19.15-7.86s-14.02,2.81-19.11,7.9l-108.59,108.61c-5.12,5.11-7.94,11.93-7.93,19.2,0,7.25,2.83,14.04,7.94,19.12l.46.46c5.11,5.08,11.91,7.88,19.15,7.88s14.03-2.8,19.13-7.91c0,0,110.65-110.78,111-111.38Z"/>
  <path class="cls-1" d="M394.87,178.45c-14.35,14.35-28.72,28.68-43.09,43.01,1.69-.12,3.37-.29,5.07-.29,13.05,0,32.14,3.83,52.16,20.49l27.78-27.79c9.94-10.49,9.7-27.39-.55-37.7l-.46-.46c-5.08-5.08-12.12-8-19.33-8s-14.17,2.91-19.11,8.14l-2.48,2.6Z"/>
  <path class="cls-1" d="M472.6,246.82l-.47-.46c-5.12-5.09-11.93-7.89-19.17-7.89-4.66,0-9.15,1.17-13.15,3.39-1.38.38-2.68,1.11-3.76,2.19l-12.53,12.51c12.41,16.32,19.28,38.14,17.48,59.94l33.17-33.17c.26-.26.5-.53.72-.81,8.32-10.77,7.34-26.1-2.3-35.68Z"/>
  <path class="cls-1" d="M478.45,316.52c-1.19-.58-2.47-.87-3.73-.87-2.21,0-4.39.86-6.02,2.49,0,0-139.72,139.69-156.3,156.31-2.56,2.57-3.21,6.48-1.62,9.74,1.44,2.94,4.42,4.77,7.64,4.77.35,0,.7-.02,1.05-.07,40.79-5.07,79.47-23.88,108.95-53.01l1.77-1.78c29.09-29.44,47.9-68.12,52.97-108.91.45-3.61-1.45-7.1-4.71-8.69Z"/>
  <path class="cls-1" d="M245.41,398.37c-19.5,0-38.68-6.49-53.26-17.58-5.65,5.61-11.3,11.23-17.02,16.88-15.45,15.25-31.42,31.03-46.5,46.69-10.15,10.7-9.94,27.3.48,37.78l.48.49c5.11,5.1,11.9,7.91,19.15,7.91s14.04-2.81,19.14-7.91c28.22-28.22,56.46-56.43,84.7-84.64-2.37.19-4.74.38-7.16.38Z"/>
  <path class="cls-1" d="M157.39,314.49c-.01-2.04.13-4.06.27-6.08-13.17,13.17-29.12,29.12-29.15,29.15-10.06,10.57-9.84,27.54.48,37.81l.5.5c5.13,5.07,11.94,7.86,19.16,7.86s13.57-2.63,18.6-7.4c.03-.03,5.45-5.45,10.01-10.01-12.73-15.32-19.74-33.36-19.87-51.84Z"/>
  <path class="cls-3" d="M256.88,487.04c-6.65,0-12.92-2.57-17.66-7.26-5.19-5.16-7.78-11.41-7.79-18.1,0-6.7,2.58-13,7.29-17.71l127.77-127.68c2.31-2.31,3.58-5.39,3.57-8.68-.01-3.23-1.27-6.25-3.54-8.5-2.79-2.77-5.87-4.03-9.13-4.03s-6.3,1.25-8.58,3.53c-30.5,30.5-30.84,30.82-31.33,31.26-.39.35-5.7,5.65-30.95,30.91-9.98,10.56-24.63,16.46-41.13,16.46-17.67,0-34.89-6.75-46.05-18.05-13.47-13.09-20.73-28.88-20.84-44.86-.11-15.61,6.42-30.44,18.88-42.9,0,0,121.09-120.93,134.08-133.91l7.14-6.66c4.9-4.54,11.19-7.03,17.74-7.03s12.78,2.55,17.42,7.19c5.21,5.21,7.86,11.77,7.74,18.45-.12,6.63-2.85,12.75-7.69,17.22l-139.86,139.79c-2.29,2.29-3.55,5.36-3.54,8.64,0,3.26,1.26,6.3,3.53,8.56,2.77,2.74,5.85,4.01,9.12,4.01s6.3-1.25,8.58-3.53c48.14-48.15,61.55-61.38,61.55-61.38,13.37-13.39,28.48-20.49,43.67-20.49s30.52,7.03,44.58,20.9l1.01,1.04c20.35,21.08,25.83,60.67,1.6,86.03l-58.18,58.1-71.85,71.86c-4.78,4.45-10.8,6.81-17.12,6.81h0Z"/>
</svg>